 http://www.silvertorrent.org 
http://silvertorrent.org/index.php?page=torrent-details&id=075456c24e5435611a445faed0ec4cee414231b3 
http://www.shotpix.com/images/08096634903738710469.png 
http://piczend.com/img.php?image=2965_hold_your_breath_xbj7.jpg

File size                                : 701 MiB
Duration                                 : 1h 26mn
Overall bit rate                         : 1 134 Kbps

Video
ID                                       : 0
Format                                   : MPEG-4 Visual
Format profile                           : Advanced Simple@L5
Format settings, BVOP                    : 2
Format settings, QPel                    : No
Format settings, GMC                     : No warppoints
Format settings, Matrix                  : Default (H.263)
Codec ID                                 : XVID
Codec ID/Hint                            : XviD
Duration                                 : 1h 26mn
Bit rate                                 : 1 000 Kbps
Width                                    : 720 pixels
Height                                   : 400 pixels
Display aspect ratio                     : 16:9
Frame rate                               : 23.976 fps
Color space                              : YUV
Chroma subsampling                       : 4:2:0
Bit depth                                : 8 bits
Scan type                                : Progressive
Compression mode                         : Lossy
Bits/(Pixel*Frame)                       : 0.145
Stream size                              : 618 MiB (88%)
Writing library                          : XviD 1.2.1 (UTC 2008-12-04)

Audio
ID                                       : 1
Format                                   : MPEG Audio
Format version                           : Version 1
Format profile                           : Layer 3
Mode                                     : Joint stereo
Codec ID                                 : 55
Codec ID/Hint                            : MP3
Duration                                 : 1h 26mn
Bit rate mode                            : Constant
Bit rate                                 : 128 Kbps
Channel(s)                               : 2 channels
Sampling rate                            : 48.0 KHz
Compression mode                         : Lossy
Stream size                              : 79.1 MiB (11%)
Alignment                                : Aligned on interleaves
Interleave, duration                     : 167 ms (4.00 video frames)
Interleave, preload duration             : 216 ms
Title                                    : Hold.Your.Breath.2012.1080p.WEB-DL.DD5.1.H.264-BS - [1] English
Writing library                          : LAME3.99r
Encoding settings                        : -m j -V 4 -q 2 -lowpass 17 -b 128

imdbhttp://www.imdb.com/title/tt2240312/

Source  as above thanks BS

sample provided
 
http://silvertorrent.org/index.php?page=torrent-details&id=075456c24e5435611a445faed0ec4cee414231b3 
http://piczend.com/img.php?image=0246_5_kw3w.png
http://piczend.com/img.php?image=2886_4_6fl9.png
http://piczend.com/img.php?image=6542_3_93j1.png
http://piczend.com/img.php?image=6967_1_g2gd.png
http://piczend.com/img.php?image=5346_2_9kpb.png 
http://silvertorrent.org/index.php?page=torrent-details&id=075456c24e5435611a445faed0ec4cee414231b3
